<svg xmlns="http://www.w3.org/2000/svg" width="37.192" height="32.543" viewBox="0 0 37.192 32.543"><path d="M1.328,10.2H35.864a1.328,1.328,0,0,0,1.328-1.328V5.547a1.328,1.328,0,0,0-1.328-1.328H1.328A1.328,1.328,0,0,0,0,5.547V8.868A1.328,1.328,0,0,0,1.328,10.2Zm0,13.283H35.864a1.328,1.328,0,0,0,1.328-1.328V18.83A1.328,1.328,0,0,0,35.864,17.5H1.328A1.328,1.328,0,0,0,0,18.83v3.321A1.328,1.328,0,0,0,1.328,23.479Zm0,13.283H35.864a1.328,1.328,0,0,0,1.328-1.328V32.113a1.328,1.328,0,0,0-1.328-1.328H1.328A1.328,1.328,0,0,0,0,32.113v3.321A1.328,1.328,0,0,0,1.328,36.762Z" transform="translate(0 -4.219)"/></svg>